<?xml version="1.0" standalone="no"?>
<!DOCTYPE svg PUBLIC "-//W3C//DTD SVG 20010904//EN"
 "http://www.w3.org/TR/2001/REC-SVG-20010904/DTD/svg10.dtd">
<svg version="1.0" xmlns="http://www.w3.org/2000/svg"
 width="512.000000pt" height="512.000000pt" viewBox="0 0 512.000000 512.000000"
 preserveAspectRatio="xMidYMid meet">
<metadata>
Created by potrace 1.11, written by Peter Selinger 2001-2013
</metadata>
<g transform="translate(0.000000,512.000000) scale(0.100000,-0.100000)"
fill="#000000" stroke="none">
<path d="M2907 3899 c-48 -11 -105 -40 -138 -70 -152 -141 -202 -170 -285
-170 -53 0 -59 2 -249 99 -70 36 -108 51 -190 73 -250 68 -458 -54 -608 -356
-66 -133 -80 -168 -252 -655 -19 -52 -54 -169 -79 -260 -24 -91 -58 -210 -75
-265 -95 -304 -113 -441 -81 -610 21 -110 92 -194 210 -249 81 -38 151 -49
265 -43 183 9 267 47 335 149 42 63 56 106 115 332 43 168 83 287 143 421 24
55 93 223 153 373 122 304 146 357 181 388 69 63 177 45 218 -36 52 -102 17
-240 -190 -735 -96 -231 -143 -383 -135 -440 12 -97 91 -157 203 -156 106 1
195 69 299 228 47 71 153 271 153 287 0 3 17 43 39 88 21 46 73 160 115 253
221 487 301 620 393 661 44 19 72 18 110 -6 55 -33 75 -94 58 -180 -6 -35 -63
-154 -95 -200 -9 -14 -19 -29 -21 -35 -4 -10 -103 -188 -119 -215 -161 -261
-249 -505 -254 -707 -8 -310 146 -510 468 -608 236 -72 449 -46 554 67 50 55
44 128 -16 190 -58 61 -115 81 -285 103 -121 15 -196 66 -218 149 -16 58 -14
169 5 251 39 168 83 277 254 635 67 142 112 239 112 244 0 2 8 21 17 42 9 22
18 44 20 49 1 6 16 49 32 97 17 47 32 97 35 110 2 12 10 46 16 73 18 78 16
231 -4 289 -53 152 -185 229 -396 229 -104 1 -247 -25 -300 -53 -51 -27 -105
-8 -215 76 -115 87 -205 115 -298 93z"/>
</g>
</svg>
